<mxfile host="app.diagrams.net" modified="2022-11-27T14:12:08.548Z" agent="5.0 (Macintosh; Intel Mac OS X 10_15_7) AppleWebKit/537.36 (KHTML, like Gecko) Chrome/107.0.0.0 Safari/537.36" version="20.6.0" etag="5LN5HLnDF4nLhAW-v2X-" type="github">
  <diagram id="VWMhm5XfUyPwE6kpdUIE" name="第 1 页">
    <mxGraphModel dx="727" dy="538" grid="1" gridSize="10" guides="1" tooltips="1" connect="1" arrows="1" fold="1" page="1" pageScale="1" pageWidth="827" pageHeight="1169" math="0" shadow="0">
      <root>
        <mxCell id="0" />
        <mxCell id="1" parent="0" />
        <mxCell id="QdCUIlLMi4QoTjuZwZRw-5" value="&lt;br&gt;&lt;br&gt;&lt;b&gt;Innodb Engine&lt;/b&gt;" style="rounded=0;whiteSpace=wrap;html=1;strokeWidth=2;fontSize=22;dashed=1;fillColor=none;" vertex="1" parent="1">
          <mxGeometry x="214" y="80" width="340" height="100" as="geometry" />
        </mxCell>
        <mxCell id="QdCUIlLMi4QoTjuZwZRw-2" value="&lt;font style=&quot;font-size: 22px;&quot;&gt;Page Cache&lt;/font&gt;" style="rounded=0;whiteSpace=wrap;html=1;strokeWidth=2;fillColor=#e51400;fontColor=#ffffff;strokeColor=#B20000;" vertex="1" parent="1">
          <mxGeometry x="220" y="220" width="320" height="60" as="geometry" />
        </mxCell>
        <mxCell id="QdCUIlLMi4QoTjuZwZRw-3" value="&lt;font style=&quot;font-size: 18px;&quot;&gt;Buffer Pool&lt;/font&gt;" style="rounded=0;whiteSpace=wrap;html=1;strokeWidth=2;fillColor=#60a917;fontColor=#ffffff;strokeColor=#2D7600;" vertex="1" parent="1">
          <mxGeometry x="230" y="100" width="150" height="40" as="geometry" />
        </mxCell>
        <mxCell id="QdCUIlLMi4QoTjuZwZRw-4" value="&lt;font style=&quot;font-size: 18px;&quot;&gt;Redo Log Buf&lt;/font&gt;" style="rounded=0;whiteSpace=wrap;html=1;strokeWidth=2;fillColor=#6a00ff;fontColor=#ffffff;strokeColor=#3700CC;" vertex="1" parent="1">
          <mxGeometry x="390" y="100" width="150" height="40" as="geometry" />
        </mxCell>
        <mxCell id="QdCUIlLMi4QoTjuZwZRw-7" value="" style="endArrow=none;html=1;rounded=0;fontSize=18;strokeWidth=3;" edge="1" parent="1">
          <mxGeometry width="50" height="50" relative="1" as="geometry">
            <mxPoint x="120" y="201" as="sourcePoint" />
            <mxPoint x="650" y="201" as="targetPoint" />
          </mxGeometry>
        </mxCell>
        <mxCell id="QdCUIlLMi4QoTjuZwZRw-8" value="&lt;b&gt;User&lt;br&gt;Space&lt;/b&gt;" style="text;html=1;align=center;verticalAlign=middle;resizable=0;points=[];autosize=1;strokeColor=none;fillColor=none;fontSize=18;" vertex="1" parent="1">
          <mxGeometry x="590" y="100" width="80" height="60" as="geometry" />
        </mxCell>
        <mxCell id="QdCUIlLMi4QoTjuZwZRw-9" value="&lt;b&gt;Kernel&lt;br&gt;Space&lt;/b&gt;" style="text;html=1;align=center;verticalAlign=middle;resizable=0;points=[];autosize=1;strokeColor=none;fillColor=none;fontSize=18;" vertex="1" parent="1">
          <mxGeometry x="120" y="220" width="80" height="60" as="geometry" />
        </mxCell>
        <mxCell id="QdCUIlLMi4QoTjuZwZRw-10" value="" style="endArrow=none;html=1;rounded=0;fontSize=18;strokeWidth=3;" edge="1" parent="1">
          <mxGeometry width="50" height="50" relative="1" as="geometry">
            <mxPoint x="120" y="300" as="sourcePoint" />
            <mxPoint x="650" y="300" as="targetPoint" />
          </mxGeometry>
        </mxCell>
        <mxCell id="QdCUIlLMi4QoTjuZwZRw-12" value="" style="shape=image;html=1;verticalAlign=top;verticalLabelPosition=bottom;labelBackgroundColor=#ffffff;imageAspect=0;aspect=fixed;image=https://cdn2.iconfinder.com/data/icons/crystalproject/128x128/apps/kcmdevices.png;strokeWidth=2;fontSize=18;fillColor=none;" vertex="1" parent="1">
          <mxGeometry x="339" y="330" width="90" height="90" as="geometry" />
        </mxCell>
        <mxCell id="QdCUIlLMi4QoTjuZwZRw-20" value="&lt;b&gt;Hardware&lt;br&gt;Space&lt;/b&gt;" style="text;html=1;align=center;verticalAlign=middle;resizable=0;points=[];autosize=1;strokeColor=none;fillColor=none;fontSize=18;" vertex="1" parent="1">
          <mxGeometry x="430" y="345" width="110" height="60" as="geometry" />
        </mxCell>
      </root>
    </mxGraphModel>
  </diagram>
</mxfile>
